<?xml version="1.0" standalone="no"?>
<!DOCTYPE svg PUBLIC "-//W3C//DTD SVG 20010904//EN"
 "http://www.w3.org/TR/2001/REC-SVG-20010904/DTD/svg10.dtd">
<svg version="1.0" xmlns="http://www.w3.org/2000/svg"
 width="600.000000pt" height="600.000000pt" viewBox="0 0 600.000000 600.000000"
 preserveAspectRatio="xMidYMid meet">
<metadata>
Created by potrace 1.14, written by Peter Selinger 2001-2017
</metadata>
<g transform="translate(0.000000,600.000000) scale(0.100000,-0.100000)"
fill="#000000" stroke="none">
<path d="M2125 5337 c-220 -111 -402 -204 -405 -207 -3 -3 -38 -21 -78 -40
l-72 -34 6 -41 c3 -22 7 -41 9 -43 2 -2 17 4 33 12 28 15 31 15 35 -2 3 -9 5
-53 4 -96 -2 -58 -6 -81 -17 -87 -15 -8 -45 -22 -200 -89 -138 -60 -165 -73
-170 -81 -5 -7 -4 -212 3 -397 1 -46 0 -87 -3 -92 -5 -7 -74 -40 -95 -45 -6
-1 -28 -11 -50 -21 l-40 -19 -1 -128 c0 -70 0 -127 0 -127 1 0 26 -3 56 -6 30
-3 71 -9 90 -13 l35 -7 0 -144 0 -143 -40 -14 c-22 -8 -51 -17 -64 -19 -14 -3
-29 -8 -35 -12 -6 -3 -17 -7 -24 -8 -8 -2 -15 -4 -17 -6 -2 -2 -5 -61 -7 -131
l-3 -127 55 -1 c86 -2 104 -4 117 -12 9 -5 11 -54 10 -174 l-2 -167 -30 -7
c-17 -4 -56 -13 -87 -19 -50 -10 -57 -14 -56 -33 0 -12 -2 -68 -6 -124 -9
-117 -20 -105 123 -128 19 -3 38 -8 43 -11 10 -6 8 -343 -1 -345 -3 0 -13 -2
-21 -4 -8 -1 -46 -6 -85 -10 -38 -4 -72 -8 -74 -10 -3 -4 -4 -71 -2 -212 l1
-53 73 6 c39 3 78 7 84 9 19 6 29 -25 23 -70 -4 -34 -9 -40 -30 -42 -14 -1
-38 -5 -54 -9 -33 -8 -52 12 -33 34 9 11 7 16 -8 25 -30 18 -75 26 -82 14 -3
-5 -10 -2 -16 8 -7 14 -11 15 -17 4 -7 -10 -12 -10 -25 1 -19 15 -55 21 -55 9
0 -11 -63 1 -71 13 -3 5 -14 -1 -24 -12 -10 -11 -25 -18 -32 -16 -7 3 -14 -2
-15 -12 0 -9 -2 -21 -3 -27 -2 -5 -3 -14 -4 -19 0 -5 -7 -4 -14 2 -10 8 -20 5
-40 -14 -15 -14 -27 -29 -27 -34 0 -6 -4 -10 -10 -10 -5 0 -10 7 -10 15 0 8
-6 15 -14 15 -8 0 -21 9 -29 20 -8 11 -16 18 -18 16 -2 -2 -26 0 -53 5 -26 5
-53 6 -60 2 -6 -4 -15 -8 -21 -8 -24 -2 -65 -18 -65 -25 0 -4 8 -11 17 -15 16
-6 15 -8 -5 -16 -13 -5 -20 -13 -17 -19 3 -6 -1 -13 -9 -16 -17 -7 -12 -62 8
-79 6 -5 12 -19 12 -30 1 -11 3 -27 5 -35 3 -9 -5 -16 -18 -18 -13 -2 -23 1
-23 7 0 6 -7 8 -15 5 -8 -4 -15 -2 -15 4 0 5 -10 10 -22 9 -13 0 -27 1 -33 2
-22 7 -56 0 -50 -9 3 -5 -3 -10 -14 -10 -12 0 -21 -6 -21 -14 0 -7 -9 -16 -21
-19 -12 -3 -18 -10 -15 -15 3 -6 -1 -13 -10 -16 -8 -3 -13 -10 -10 -15 3 -5
-4 -12 -17 -16 -12 -3 -17 -8 -11 -11 6 -3 -3 -20 -23 -41 -18 -21 -32 -42
-30 -48 2 -5 -3 -15 -12 -21 -11 -9 -14 -30 -13 -97 1 -65 -2 -89 -13 -101
-19 -19 -19 -45 0 -52 8 -4 12 -10 9 -15 -3 -5 4 -9 15 -9 12 0 21 -4 21 -10
0 -5 7 -10 15 -10 8 0 15 -8 15 -17 0 -10 23 -34 52 -53 28 -19 69 -48 92 -63
55 -37 222 -118 261 -127 6 -1 15 -5 20 -10 6 -4 35 -16 65 -26 67 -22 59 -20
98 -29 18 -4 35 -12 38 -16 3 -5 10 -7 15 -3 5 3 15 2 22 -3 10 -8 72 -26 129
-37 7 -2 20 -6 28 -9 8 -3 26 -8 40 -10 14 -3 36 -8 50 -12 14 -3 36 -8 50
-10 14 -2 36 -7 50 -10 68 -14 179 -35 210 -40 19 -3 60 -10 90 -15 30 -5 73
-12 95 -14 22 -3 56 -8 75 -10 75 -11 198 -26 260 -31 36 -3 81 -8 100 -10 19
-2 76 -7 125 -10 50 -4 104 -8 120 -10 210 -25 1101 -25 1405 0 25 2 81 7 125
10 144 10 248 20 315 30 14 2 54 7 90 10 36 4 74 9 85 11 11 3 38 7 60 9 84
11 121 16 135 20 8 2 35 7 60 10 80 12 306 60 475 101 11 3 27 6 35 7 8 1 17
5 20 8 4 5 42 16 110 34 8 2 16 4 18 5 1 2 5 3 10 4 17 4 88 29 97 35 6 3 15
6 21 7 41 6 261 117 324 163 73 53 150 143 150 174 0 17 41 30 54 17 9 -9 46
24 46 41 0 5 7 6 15 3 19 -8 49 22 41 41 -3 8 -1 17 5 20 5 4 6 12 2 18 -4 6
-8 18 -9 27 -1 8 -5 23 -9 33 -5 12 -3 17 7 17 20 0 52 36 43 49 -3 7 2 11 14
11 24 0 25 4 10 31 -7 15 -7 24 2 35 11 14 2 19 -24 15 -4 -1 -3 7 3 18 14 27
13 31 -6 31 -14 0 -12 5 7 22 13 13 24 32 24 43 -1 11 4 23 10 28 6 5 3 12 -9
22 -10 7 -16 17 -13 22 8 13 -20 46 -32 38 -6 -3 -14 1 -17 10 -4 10 -14 15
-25 12 -11 -3 -19 -1 -19 5 0 6 -9 8 -21 5 -12 -3 -22 0 -26 9 -3 8 -8 12 -13
9 -4 -2 -16 2 -26 10 -10 8 -26 15 -35 15 -16 0 -60 40 -44 40 4 0 1 7 -6 17
-8 9 -13 18 -11 20 1 1 2 6 2 11 0 4 -4 1 -9 -7 -7 -11 -14 -10 -41 5 -23 13
-34 15 -37 7 -3 -8 -11 -8 -29 2 -30 15 -63 9 -71 -14 -4 -9 -11 -22 -16 -29
-14 -18 -19 -72 -7 -72 6 0 10 -7 10 -15 0 -8 7 -15 15 -15 17 0 19 -18 4 -40
-7 -11 -12 -12 -15 -3 -3 7 -11 10 -18 7 -7 -3 -19 2 -26 11 -7 8 -19 15 -26
15 -18 0 -18 14 1 30 8 7 15 19 15 26 0 8 4 14 9 14 5 0 12 13 16 30 4 16 10
32 15 35 10 6 -18 65 -31 65 -16 0 -39 27 -39 45 0 14 -7 16 -34 13 -21 -2
-34 0 -33 7 3 13 -57 9 -61 -5 -2 -5 -8 -10 -14 -10 -6 0 -17 -8 -24 -17 -7
-10 -14 -13 -14 -6 0 7 -10 10 -25 7 -15 -3 -25 0 -25 7 0 7 -3 10 -6 6 -3 -3
-18 -1 -34 5 -24 8 -28 14 -25 39 4 25 -1 32 -23 41 -39 16 -51 17 -58 7 -4
-6 -11 -6 -19 1 -8 7 -18 9 -23 6 -5 -3 -17 1 -28 8 -12 10 -26 11 -41 5 -13
-5 -33 -5 -47 1 -13 5 -27 6 -30 3 -3 -4 -6 -1 -6 5 0 7 -9 3 -20 -8 -11 -11
-27 -20 -35 -20 -10 0 -15 -10 -15 -29 0 -24 -3 -28 -20 -24 -23 6 -63 -24
-53 -40 3 -5 2 -7 -3 -4 -5 3 -9 33 -9 66 0 54 -2 61 -20 62 -11 1 -27 3 -35
4 -8 1 -25 3 -36 4 -17 1 -22 7 -22 34 0 17 -1 102 -3 187 l-3 155 46 -2 c41
-1 46 1 51 23 2 14 2 26 -2 28 -3 2 -6 43 -6 90 l0 86 -27 1 c-16 1 -32 3 -38
4 -5 1 -16 3 -22 4 -10 1 -13 40 -12 164 0 89 2 167 2 172 1 6 22 10 46 9 l45
-2 -1 115 c-1 69 -6 117 -12 121 -11 6 -21 8 -68 11 -22 1 -23 6 -25 89 -6
191 -5 250 1 260 3 5 24 9 47 8 l41 -2 -5 100 c-3 56 -6 102 -6 102 -1 1 -21
5 -46 8 l-45 7 -1 82 c0 45 -2 129 -3 186 -4 119 5 107 -123 177 -46 25 -83
47 -83 50 0 3 8 1 17 -4 11 -6 26 -6 42 0 14 6 40 16 56 23 117 47 152 59 166
57 21 -4 31 44 13 59 -12 10 -128 71 -354 187 -79 41 -175 90 -307 160 -13 7
-33 17 -45 24 -13 6 -45 23 -73 38 -46 25 -111 59 -440 230 -280 146 -351 183
-362 193 -7 5 -13 6 -13 2 0 -5 -8 -1 -17 7 -10 8 -49 30 -88 48 -38 19 -72
37 -75 40 -10 11 -272 140 -283 139 -7 0 -192 -91 -412 -202z"/>
</g>
</svg>
